<svg width="29" height="29" viewBox="0 0 29 29" fill="none" xmlns="http://www.w3.org/2000/svg">
<g clip-path="url(#clip0_176_2913)">
<path d="M1.81264 1.97307C-0.466278 4.3402 0.00013905 6.85474 0.00013905 14.4938C0.00013905 20.8376 -1.10669 27.197 4.68606 28.6941C6.49493 29.1594 22.5223 29.1594 24.3287 28.6917C26.7406 28.0694 28.7029 26.1131 28.9711 22.702C29.0086 22.2259 29.0086 6.77015 28.9699 6.2844C28.6848 2.65095 26.4481 0.556904 23.501 0.132779C22.8256 0.0349044 22.6902 0.00590444 19.2247 -0.000137225C6.93235 0.00590444 4.23776 -0.541471 1.81264 1.97307Z" fill="url(#paint0_linear_176_2913)"/>
<path d="M14.4975 3.79293C10.1101 3.79293 5.94373 3.40263 4.35236 7.4868C3.69502 9.17364 3.79048 11.3643 3.79048 14.5012C3.79048 17.2538 3.70227 19.8408 4.35236 21.5143C5.94011 25.6009 10.1403 25.2094 14.4951 25.2094C18.6965 25.2094 23.0284 25.6468 24.6391 21.5143C25.2976 19.8106 25.2009 17.6525 25.2009 14.5012C25.2009 10.3179 25.4317 7.6173 23.4029 5.58972C21.3488 3.53555 18.5708 3.79293 14.4927 3.79293H14.4975ZM13.5381 5.72264C22.69 5.70814 23.8549 4.69072 23.212 18.8246C22.9836 23.8235 19.1774 23.2749 14.4987 23.2749C5.9679 23.2749 5.72261 23.0308 5.72261 14.4963C5.72261 5.8628 6.39927 5.72747 13.5381 5.72022V5.72264ZM20.2129 7.50009C19.5036 7.50009 18.9285 8.07526 18.9285 8.78455C18.9285 9.49384 19.5036 10.069 20.2129 10.069C20.9222 10.069 21.4974 9.49384 21.4974 8.78455C21.4974 8.07526 20.9222 7.50009 20.2129 7.50009ZM14.4975 9.00205C11.461 9.00205 8.99961 11.4646 8.99961 14.5012C8.99961 17.5377 11.461 19.9991 14.4975 19.9991C17.5341 19.9991 19.9942 17.5377 19.9942 14.5012C19.9942 11.4646 17.5341 9.00205 14.4975 9.00205ZM14.4975 10.9318C19.2161 10.9318 19.2221 18.0706 14.4975 18.0706C9.78019 18.0706 9.77294 10.9318 14.4975 10.9318Z" fill="white"/>
</g>
<defs>
<linearGradient id="paint0_linear_176_2913" x1="1.86825" y1="27.1476" x2="28.8207" y2="3.82058" gradientUnits="userSpaceOnUse">
<stop stop-color="#FFDD55"/>
<stop offset="0.5" stop-color="#FF543E"/>
<stop offset="1" stop-color="#C837AB"/>
</linearGradient>
<clipPath id="clip0_176_2913">
<rect width="29" height="29" fill="white"/>
</clipPath>
</defs>
</svg>
