<svg width="29" height="29" viewBox="0 0 29 29" fill="none" xmlns="http://www.w3.org/2000/svg">
<g clip-path="url(#clip0_58_104)">
<path d="M1.8124 1.97319C-0.466522 4.34032 -0.00010509 6.85486 -0.00010509 14.4939C-0.00010509 20.8377 -1.10694 27.1971 4.68581 28.6943C6.49469 29.1595 22.522 29.1595 24.3285 28.6919C26.7403 28.0696 28.7026 26.1133 28.9709 22.7021C29.0084 22.2261 29.0084 6.77028 28.9697 6.28453C28.6845 2.65107 26.4479 0.557026 23.5008 0.132902C22.8253 0.0350265 22.69 0.00602651 19.2245 -1.51545e-05C6.9321 0.00602651 4.23752 -0.541349 1.8124 1.97319Z" fill="url(#paint0_linear_58_104)"/>
<path d="M14.4975 3.79305C10.1101 3.79305 5.94373 3.40276 4.35236 7.48692C3.69502 9.17376 3.79048 11.3645 3.79048 14.5013C3.79048 17.2539 3.70227 19.8409 4.35236 21.5145C5.94011 25.6011 10.1403 25.2096 14.4951 25.2096C18.6965 25.2096 23.0284 25.647 24.6391 21.5145C25.2976 19.8107 25.2009 17.6526 25.2009 14.5013C25.2009 10.3181 25.4317 7.61742 23.4029 5.58984C21.3488 3.53567 18.5708 3.79305 14.4927 3.79305H14.4975ZM13.5381 5.72276C22.69 5.70826 23.8549 4.69084 23.212 18.8247C22.9836 23.8236 19.1774 23.275 14.4987 23.275C5.9679 23.275 5.72261 23.0309 5.72261 14.4965C5.72261 5.86292 6.39927 5.72759 13.5381 5.72034V5.72276ZM20.2129 7.50022C19.5036 7.50022 18.9285 8.07538 18.9285 8.78467C18.9285 9.49397 19.5036 10.0691 20.2129 10.0691C20.9222 10.0691 21.4974 9.49397 21.4974 8.78467C21.4974 8.07538 20.9222 7.50022 20.2129 7.50022ZM14.4975 9.00217C11.461 9.00217 8.99961 11.4648 8.99961 14.5013C8.99961 17.5378 11.461 19.9992 14.4975 19.9992C17.5341 19.9992 19.9942 17.5378 19.9942 14.5013C19.9942 11.4648 17.5341 9.00217 14.4975 9.00217ZM14.4975 10.9319C19.2161 10.9319 19.2221 18.0707 14.4975 18.0707C9.78019 18.0707 9.77294 10.9319 14.4975 10.9319Z" fill="white"/>
</g>
<defs>
<linearGradient id="paint0_linear_58_104" x1="1.868" y1="27.1477" x2="28.8204" y2="3.8207" gradientUnits="userSpaceOnUse">
<stop stop-color="#FFDD55"/>
<stop offset="0.5" stop-color="#FF543E"/>
<stop offset="1" stop-color="#C837AB"/>
</linearGradient>
<clipPath id="clip0_58_104">
<rect width="29" height="29" fill="white"/>
</clipPath>
</defs>
</svg>
