<svg width="23" height="23" viewBox="0 0 23 23" fill="none" xmlns="http://www.w3.org/2000/svg">
<g clip-path="url(#clip0_58_128)">
<path d="M11.5 23C17.8513 23 23 17.8513 23 11.5C23 5.14873 17.8513 0 11.5 0C5.14873 0 0 5.14873 0 11.5C0 17.8513 5.14873 23 11.5 23Z" fill="#B1B1B1"/>
<path d="M14.3912 11.9502H12.3391V19.4679H9.23012V11.9502H7.75146V9.3082H9.23012V7.59852C9.23012 6.37591 9.81088 4.46143 12.3668 4.46143L14.6697 4.47106V7.03559H12.9988C12.7247 7.03559 12.3393 7.17253 12.3393 7.75575V9.31066H14.6628L14.3912 11.9502Z" fill="white"/>
</g>
<defs>
<clipPath id="clip0_58_128">
<rect width="23" height="23" fill="white"/>
</clipPath>
</defs>
</svg>
