<svg width="18" height="26" viewBox="0 0 18 26" fill="none" xmlns="http://www.w3.org/2000/svg">
<circle cx="15.6318" cy="3.1067" r="2.36842" fill="#1D80EB"/>
<circle cx="15.6318" cy="3.1067" r="2.36842" fill="#1D80EB"/>
<circle cx="9.00025" cy="3.1067" r="2.36842" fill="#1D80EB"/>
<circle cx="9.00025" cy="3.1067" r="2.36842" fill="#1D80EB"/>
<circle cx="2.36842" cy="3.1067" r="2.36842" fill="#1D80EB"/>
<circle cx="2.36842" cy="3.1067" r="2.36842" fill="#1D80EB"/>
<circle cx="15.6318" cy="9.73805" r="2.36842" fill="#1D80EB"/>
<circle cx="15.6318" cy="9.73805" r="2.36842" fill="#1D80EB"/>
<circle cx="9.00025" cy="9.73805" r="2.36842" fill="#1D80EB"/>
<circle cx="9.00025" cy="9.73805" r="2.36842" fill="#1D80EB"/>
<circle cx="2.36842" cy="9.73853" r="2.36842" fill="#1D80EB"/>
<circle cx="2.36842" cy="9.73853" r="2.36842" fill="#1D80EB"/>
<circle cx="15.6318" cy="16.3704" r="2.36842" fill="#1D80EB"/>
<circle cx="15.6318" cy="16.3704" r="2.36842" fill="#1D80EB"/>
<circle cx="9.00025" cy="16.3704" r="2.36842" fill="#1D80EB"/>
<circle cx="9.00025" cy="16.3704" r="2.36842" fill="#1D80EB"/>
<circle cx="9.00025" cy="23.0022" r="2.36842" fill="#1D80EB"/>
<circle cx="9.00025" cy="23.0022" r="2.36842" fill="#1D80EB"/>
<circle cx="2.36842" cy="16.3704" r="2.36842" fill="#1D80EB"/>
<circle cx="2.36842" cy="16.3704" r="2.36842" fill="#1D80EB"/>
</svg>
