<svg width="34" height="35" viewBox="0 0 34 35" fill="none" xmlns="http://www.w3.org/2000/svg">
<path fill-rule="evenodd" clip-rule="evenodd" d="M17 0.991699C21.5409 0.991699 25.8099 2.75503 29.0208 5.95674C32.2317 9.1586 34 13.4156 34 17.9436C34 22.4716 32.2317 26.7286 29.0208 29.9303C25.8099 33.1321 21.5409 34.8955 17 34.8955C12.4591 34.8955 8.19002 33.1321 4.97914 29.9303C1.76827 26.7286 0 22.4716 0 17.9436C0 13.4156 1.76827 9.15853 4.97914 5.95674C8.18995 2.75503 12.4591 0.991699 17 0.991699ZM1.99219 17.9435C1.99219 26.1954 8.72465 32.9088 17 32.9088C25.2753 32.9088 32.0078 26.1954 32.0078 17.9435C32.0078 9.69156 25.2753 2.97815 17 2.97815C8.72465 2.97815 1.99219 9.69156 1.99219 17.9435Z" fill="#203E75"/>
<path d="M25.1214 12.5046C24.7325 12.1168 24.1017 12.1168 23.7128 12.5046L14.9167 21.2758L10.2864 16.6586C9.89743 16.2708 9.2667 16.2708 8.87769 16.6586C8.48869 17.0465 8.48869 17.6754 8.87769 18.0633L14.2123 23.3828C14.4068 23.5768 14.6617 23.6737 14.9166 23.6737C15.1715 23.6737 15.4265 23.5767 15.6209 23.3828L25.1214 13.9093C25.5104 13.5214 25.5104 12.8925 25.1214 12.5046Z" fill="#203E75"/>
</svg>
