<svg width="23" height="23" viewBox="0 0 23 23" fill="none" xmlns="http://www.w3.org/2000/svg">
<g clip-path="url(#clip0_58_123)">
<path d="M11.5 23C17.8513 23 23 17.8513 23 11.5C23 5.14873 17.8513 0 11.5 0C5.14873 0 0 5.14873 0 11.5C0 17.8513 5.14873 23 11.5 23Z" fill="#B1B1B1"/>
<path fill-rule="evenodd" clip-rule="evenodd" d="M11.0655 16.5438H11.9681C11.9681 16.5438 12.2408 16.5139 12.38 16.3638C12.5081 16.2261 12.504 15.9674 12.504 15.9674C12.504 15.9674 12.4864 14.7562 13.0485 14.5779C13.6026 14.4022 14.3141 15.7484 15.0683 16.266C15.6386 16.6578 16.072 16.5719 16.072 16.5719L18.0886 16.5438C18.0886 16.5438 19.1435 16.4788 18.6433 15.6494C18.6023 15.5815 18.352 15.0358 17.1439 13.9145C15.8795 12.7409 16.0488 12.9307 17.572 10.9006C18.4996 9.66427 18.8704 8.90946 18.7546 8.58618C18.6441 8.27827 17.9619 8.35966 17.9619 8.35966L15.6913 8.3738C15.6913 8.3738 15.523 8.35084 15.3982 8.42546C15.2762 8.49865 15.1977 8.6692 15.1977 8.6692C15.1977 8.6692 14.8383 9.62593 14.359 10.4396C13.348 12.1564 12.9437 12.247 12.7785 12.1404C12.3941 11.892 12.4901 11.1423 12.4901 10.6097C12.4901 8.94595 12.7424 8.25224 11.9987 8.07266C11.7519 8.013 11.5702 7.97364 10.939 7.96729C10.1289 7.95889 9.44317 7.96975 9.0549 8.15999C8.7966 8.28647 8.59734 8.56834 8.7187 8.58454C8.86876 8.60463 9.20865 8.67617 9.38884 8.92156C9.62151 9.23807 9.61331 9.94901 9.61331 9.94901C9.61331 9.94901 9.74697 11.9076 9.3011 12.1509C8.99504 12.3178 8.5752 11.9771 7.67382 10.4195C7.21196 9.62163 6.86326 8.73972 6.86326 8.73972C6.86326 8.73972 6.79602 8.5749 6.6761 8.48676C6.53055 8.37995 6.32719 8.34592 6.32719 8.34592L4.16958 8.36007C4.16958 8.36007 3.84568 8.36909 3.72679 8.50992C3.62101 8.63517 3.71838 8.89429 3.71838 8.89429C3.71838 8.89429 5.40757 12.8463 7.3202 14.8378C9.07396 16.6637 11.0655 16.5438 11.0655 16.5438Z" fill="white"/>
</g>
<defs>
<clipPath id="clip0_58_123">
<rect width="23" height="23" fill="white"/>
</clipPath>
</defs>
</svg>
