<svg width="7" height="12" viewBox="0 0 7 12" fill="none" xmlns="http://www.w3.org/2000/svg">
<path fill-rule="evenodd" clip-rule="evenodd" d="M0.256949 11.7482C0.1755 11.6686 0.110878 11.5741 0.0667866 11.47C0.022695 11.3658 -3.25986e-08 11.2542 -3.75257e-08 11.1415C-4.24528e-08 11.0288 0.022695 10.9172 0.0667866 10.8131C0.110878 10.709 0.175499 10.6144 0.256949 10.5348L4.88713 5.99978L0.256948 1.46476C0.0927201 1.30385 0.000457438 1.0856 0.00045743 0.858038C0.000457421 0.630472 0.0927201 0.412227 0.256948 0.251313C0.421177 0.0903997 0.643918 -2.81466e-08 0.876172 -3.82987e-08C1.10843 -4.84508e-08 1.33117 0.0903997 1.4954 0.251313L6.74305 5.39305C6.8245 5.47265 6.88912 5.56722 6.93321 5.67133C6.9773 5.77544 7 5.88706 7 5.99978C7 6.11249 6.9773 6.22411 6.93321 6.32822C6.88912 6.43233 6.8245 6.5269 6.74305 6.6065L1.4954 11.7482C1.41415 11.828 1.31764 11.8914 1.21138 11.9346C1.10512 11.9778 0.991214 12 0.876172 12C0.761131 12 0.64722 11.9778 0.540963 11.9346C0.434707 11.8914 0.338192 11.828 0.256949 11.7482Z" fill="#1D80EB"/>
</svg>
