<svg width="73" height="72" viewBox="0 0 73 72" fill="none" xmlns="http://www.w3.org/2000/svg">
<g clip-path="url(#clip0_512_440)">
<path d="M67.6018 31.2401C67.6018 29.7278 66.3777 28.4978 64.8731 28.4978H47.6838C46.1792 28.4978 44.9551 29.728 44.9551 31.2401V34.7638C44.9551 35.4004 45.174 35.9855 45.5374 36.4514C45.1738 36.9173 44.9551 37.5023 44.9551 38.1391V41.6626C44.9551 41.9178 44.9926 42.164 45.0578 42.3986C44.8243 42.3331 44.5794 42.2954 44.3255 42.2954H38.1797C37.6001 42.2954 37.1302 42.7676 37.1302 43.3501C37.1302 43.9325 37.6001 44.4047 38.1797 44.4047H44.3255C44.6668 44.4047 44.9551 44.6946 44.9551 45.0376V48.5612C44.9551 48.9042 44.6668 49.194 44.3255 49.194H27.1361C26.7948 49.194 26.5064 48.9042 26.5064 48.5612V45.0376C26.5064 44.6946 26.7948 44.4047 27.1361 44.4047H33.282C33.8616 44.4047 34.3314 43.9325 34.3314 43.3501C34.3314 42.7676 33.8616 42.2954 33.282 42.2954H27.1361C25.6314 42.2954 24.4074 43.5257 24.4074 45.0377V48.5613C24.4074 49.1979 24.6262 49.7831 24.9896 50.249C24.6261 50.7149 24.4074 51.2999 24.4074 51.9366V55.4603C24.4074 55.7155 24.4449 55.9617 24.5101 56.1963C24.2766 56.1308 24.0317 56.0931 23.7777 56.0931H6.5883C5.08369 56.0931 3.85962 57.3234 3.85962 58.8354V62.3589C3.85962 62.9955 4.07846 63.5806 4.44185 64.0465C4.07832 64.5124 3.85962 65.0974 3.85962 65.7342V69.2578C3.85962 70.77 5.08383 72.0001 6.5883 72.0001H23.7774C24.4109 72.0001 24.9931 71.7802 25.4567 71.415C25.9203 71.7803 26.5023 72.0001 27.1359 72.0001H44.3252C44.9586 72.0001 45.5409 71.7802 46.0044 71.415C46.468 71.7803 47.0501 72.0001 47.6837 72.0001H64.873C66.3776 72.0001 67.6016 70.77 67.6016 69.2578V65.7342C67.6016 65.0976 67.3828 64.5124 67.0194 64.0465C67.3829 63.5806 67.6016 62.9956 67.6016 62.3589V58.8354C67.6016 58.1988 67.3828 57.6136 67.0194 57.1478C67.3829 56.6819 67.6016 56.0969 67.6016 55.4601V51.9365C67.6016 51.2999 67.3828 50.7147 67.0194 50.2488C67.3829 49.7829 67.6016 49.1979 67.6016 48.5612V45.0376C67.6016 44.4009 67.3828 43.8158 67.0194 43.3499C67.3829 42.884 67.6016 42.299 67.6016 41.6623V38.1389C67.6016 37.5023 67.3828 36.9172 67.0194 36.4513C67.3829 35.9854 67.6016 35.4004 67.6016 34.7636V31.2401H67.6018ZM24.4072 69.2577C24.4074 69.6007 24.119 69.8905 23.7777 69.8905H6.5883C6.24703 69.8905 5.95864 69.6007 5.95864 69.2577V65.734C5.95864 65.3911 6.24703 65.1012 6.5883 65.1012H23.7774C24.1187 65.1012 24.4071 65.3911 24.4071 65.734V69.2577H24.4072ZM24.4072 62.3589C24.4072 62.7019 24.1189 62.9917 23.7776 62.9917H6.5883C6.24703 62.9917 5.95864 62.7019 5.95864 62.3589V58.8353C5.95864 58.4923 6.24703 58.2024 6.5883 58.2024H23.7774C24.1187 58.2024 24.4071 58.4923 24.4071 58.8353V62.3589H24.4072ZM44.9551 69.2577C44.9551 69.6007 44.6668 69.8905 44.3255 69.8905H27.1361C26.7948 69.8905 26.5064 69.6007 26.5064 69.2577V65.734C26.5064 65.3911 26.7948 65.1012 27.1361 65.1012H44.3253C44.6666 65.1012 44.955 65.3911 44.955 65.734V69.2577H44.9551ZM44.9551 62.3589C44.9551 62.7019 44.6668 62.9917 44.3255 62.9917H27.1361C26.7946 62.9917 26.5064 62.7019 26.5064 62.3589V58.8353C26.5064 58.4923 26.7948 58.2024 27.1361 58.2024H44.3253C44.6666 58.2024 44.955 58.4923 44.955 58.8353V62.3589H44.9551ZM44.9551 55.4601C44.9551 55.8031 44.6668 56.0929 44.3255 56.0929H27.1361C26.7948 56.0929 26.5064 55.8031 26.5064 55.4601V51.9365C26.5064 51.5935 26.7948 51.3037 27.1361 51.3037H44.3253C44.6666 51.3037 44.955 51.5935 44.955 51.9365V55.4601H44.9551ZM47.0542 38.1389C47.0542 37.7959 47.3426 37.5061 47.6838 37.5061H64.8731C65.2144 37.5061 65.5026 37.7958 65.5026 38.1389V41.6624C65.5026 42.0054 65.2142 42.2952 64.873 42.2952H47.6838C47.3426 42.2952 47.0542 42.0054 47.0542 41.6624V38.1389ZM47.0542 45.0377C47.0542 44.6947 47.3426 44.4049 47.6838 44.4049H64.8731C65.2144 44.4049 65.5026 44.6946 65.5026 45.0377V48.5613C65.5026 48.9043 65.2142 49.1941 64.873 49.1941H47.6838C47.3426 49.1941 47.0542 48.9043 47.0542 48.5613V45.0377ZM47.0542 51.9365C47.0542 51.5935 47.3426 51.3037 47.6838 51.3037H64.8731C65.2144 51.3037 65.5026 51.5933 65.5026 51.9365V55.4601C65.5026 55.8031 65.2142 56.0929 64.873 56.0929H47.6838C47.3426 56.0929 47.0542 55.8031 47.0542 55.4601V51.9365ZM47.0542 58.8353C47.0542 58.4923 47.3426 58.2024 47.6838 58.2024H64.8731C65.2144 58.2024 65.5026 58.4921 65.5026 58.8353V62.3589C65.5026 62.7019 65.2142 62.9917 64.873 62.9917H47.6838C47.3426 62.9917 47.0542 62.7019 47.0542 62.3589V58.8353ZM65.5029 69.2577C65.5028 69.6007 65.2144 69.8905 64.8731 69.8905H47.6838C47.3426 69.8905 47.0542 69.6007 47.0542 69.2577V65.734C47.0542 65.3911 47.3426 65.1012 47.6838 65.1012H64.8731C65.2144 65.1012 65.5028 65.3911 65.5028 65.734V69.2577H65.5029ZM65.5029 34.7638C65.5029 35.1068 65.2145 35.3966 64.8732 35.3966H47.6838C47.3426 35.3966 47.0542 35.1068 47.0542 34.7638V31.2401C47.0542 30.8971 47.3426 30.6073 47.6838 30.6073H64.8731C65.2144 30.6073 65.5028 30.8971 65.5028 31.2401V34.7638H65.5029Z" fill="white"/>
<path d="M40.3251 16.9866H35.847C35.2675 16.9866 34.7976 17.4588 34.7976 18.0413C34.7976 18.6237 35.2675 19.0959 35.847 19.0959H37.7717L5.7898 51.2378C5.37996 51.6497 5.37996 52.3175 5.7898 52.7294C5.99479 52.9354 6.26331 53.0385 6.53197 53.0385C6.80048 53.0385 7.06914 52.9355 7.27399 52.7295L39.2755 20.568V22.5418C39.2755 23.1243 39.7454 23.5965 40.3249 23.5965C40.9045 23.5965 41.3744 23.1243 41.3744 22.5418V18.0414C41.3745 17.4589 40.9046 16.9866 40.3251 16.9866Z" fill="white"/>
<path d="M67.5012 14.5957C66.9442 14.4367 66.3633 14.7617 66.2048 15.3221C64.9509 19.7575 60.8692 22.8554 56.2784 22.8554C50.5872 22.8554 45.957 18.2021 45.957 12.4824C45.957 6.76266 50.5873 2.10952 56.2785 2.10952C61.3898 2.10952 65.6769 5.78658 66.4721 10.8525C66.5625 11.4279 67.1005 11.8211 67.6723 11.73C68.2449 11.6393 68.6357 11.0992 68.5455 10.5237C68.0896 7.61864 66.612 4.95577 64.3849 3.02555C62.1335 1.07452 59.2547 0 56.2785 0C49.4298 0 43.8582 5.59955 43.8582 12.4824C43.8582 19.3653 49.4298 24.9649 56.2785 24.9649C61.8029 24.9649 66.7153 21.2366 68.2241 15.8985C68.3825 15.3383 68.0588 14.7548 67.5012 14.5957Z" fill="white"/>
<path d="M56.2083 4.323C51.7314 4.323 48.0891 7.98347 48.0891 12.4826C48.0891 16.9818 51.7314 20.6421 56.2083 20.6421C60.6852 20.6421 64.3272 16.9816 64.3272 12.4826C64.3272 7.98333 60.6852 4.323 56.2083 4.323ZM56.2084 18.5326C52.889 18.5326 50.1883 15.8185 50.1883 12.4825C50.1883 9.14658 52.8888 6.43237 56.2084 6.43237C59.5277 6.43237 62.2284 9.14644 62.2284 12.4825C62.2283 15.8185 59.5277 18.5326 56.2084 18.5326Z" fill="white"/>
<path d="M56.7225 11.7138V9.62242C57.1642 9.65814 57.3927 9.76347 57.8695 10.0027C58.1087 10.1235 58.4059 10.0773 58.5965 9.75222C58.7507 9.48897 58.8538 9.06892 58.5375 8.80427C58.087 8.42852 57.2958 8.30941 56.7224 8.30941V7.99736C56.7224 7.81961 56.5038 7.69727 56.3205 7.69727C56.1176 7.69727 55.9185 7.82144 55.9185 7.99427V8.32698C54.5509 8.50811 53.6246 9.24709 53.6246 10.6442C53.6246 12.0752 54.6538 12.5476 55.9185 13.0327V15.3973C55.2926 15.3215 54.9937 15.0749 54.4051 14.6309C54.1109 14.4094 53.8232 14.4933 53.6069 14.798C53.3301 15.1899 53.3686 15.5315 53.601 15.8465C54.0473 16.4515 55.0181 16.8054 55.9186 16.8054V17.1414C55.9186 17.3219 56.1261 17.4412 56.3206 17.4412C56.5039 17.4412 56.7225 17.32 56.7225 17.1442V16.7759C57.9168 16.5904 58.9572 15.8309 58.9572 14.2567C58.9571 12.814 58.0547 12.2008 56.7225 11.7138ZM56.0131 11.4525C55.3025 11.1672 55.0672 10.9364 55.0672 10.4901C55.0672 9.97286 55.5026 9.73928 56.0131 9.65828V11.4525ZM56.6279 15.3858V13.3182C57.3635 13.642 57.5146 13.9945 57.5146 14.4113C57.5146 14.9594 57.1617 15.2722 56.6279 15.3858Z" fill="white"/>
</g>
<defs>
<clipPath id="clip0_512_440">
<rect width="71.6418" height="72" fill="white" transform="translate(0.388184)"/>
</clipPath>
</defs>
</svg>
