<svg width="95" height="94" viewBox="0 0 95 94" fill="none" xmlns="http://www.w3.org/2000/svg">
<g clip-path="url(#clip0_503_367)">
<path d="M47.0294 0C21.0958 0 0 21.0846 0 47C0 72.9154 21.0958 94 47.0294 94C72.963 94 94.0588 72.9154 94.0588 47C94.0588 21.0846 72.963 0 47.0294 0ZM47.0294 90.0834C23.2582 90.0834 3.91905 70.7563 3.91905 47C3.91905 23.2437 23.2582 3.91661 47.0294 3.91661C70.8005 3.91661 90.1397 23.2437 90.1397 47C90.1397 70.7563 70.8005 90.0834 47.0294 90.0834Z" fill="white"/>
<path d="M65.7255 45.3534L38.2918 27.7284C37.6909 27.3364 36.914 27.3153 36.2939 27.6557C35.6624 27.9999 35.272 28.6579 35.272 29.375V64.625C35.272 65.3421 35.6624 66.0001 36.2939 66.3444C36.5848 66.5032 36.9101 66.5834 37.2316 66.5834C37.599 66.5834 37.9703 66.4801 38.2918 66.2717L65.7255 48.6467C66.2844 48.2872 66.625 47.6656 66.625 47C66.625 46.3345 66.2844 45.713 65.7255 45.3534ZM39.191 61.0372V32.9628L61.041 47L39.191 61.0372Z" fill="white"/>
</g>
<defs>
<clipPath id="clip0_503_367">
<rect width="94.0588" height="94" fill="white"/>
</clipPath>
</defs>
</svg>
