<svg width="74" height="74" viewBox="0 0 74 74" fill="none" xmlns="http://www.w3.org/2000/svg">
<path d="M60.8554 59.9578C60.2568 59.9578 59.7714 60.4431 59.7714 61.0418V71.2332C59.7714 71.5632 59.5029 71.8317 59.1729 71.8317H53.3459V50.4849C53.3459 49.8863 52.8605 49.4009 52.2619 49.4009C51.6632 49.4009 51.1779 49.8863 51.1779 50.4849V71.8319H39.4441L42.8468 68.0885C43.2186 67.6795 43.3939 67.0969 43.3157 66.5295C43.3143 66.5185 43.3125 66.5075 43.3106 66.4965L40.0698 47.3509L40.9429 46.0365C41.4257 46.3794 41.7975 46.7095 42.4949 46.7095C43.2043 46.7095 43.8675 46.3124 44.1939 45.6589V45.6587L47.612 38.8079L55.3988 41.8236C55.6805 41.9444 59.7712 43.7866 59.7712 48.651V55.983C59.771 56.5815 60.2564 57.067 60.8551 57.067C61.4538 57.067 61.9391 56.5817 61.9391 55.983V48.651C61.9391 42.2419 56.4514 39.9122 56.2179 39.816C56.2111 39.8132 56.2041 39.8104 56.1972 39.8078L43.2374 34.7888V31.7493C45.2958 30.1485 46.723 27.7754 47.0813 25.0681C48.1076 24.9958 49.0599 24.6125 49.8377 23.9438C50.8533 23.0704 51.436 21.7992 51.436 20.4568C51.436 19.3428 51.0341 18.279 50.3178 17.4501V13.4346C50.3177 6.02681 44.291 0 36.8832 0C29.4754 0 23.4487 6.02681 23.4487 13.4346V17.5553C22.7248 18.3758 22.3311 19.3858 22.3311 20.4567C22.3311 21.7995 22.9135 23.0705 23.9294 23.9441C24.7066 24.6125 25.6583 24.9954 26.6843 25.0678C27.0455 27.8259 28.5144 30.2874 30.7481 31.9098V34.7888L17.8023 39.8077C17.7955 39.8103 17.7887 39.813 17.7819 39.8158C17.5482 39.9119 12.0607 42.2416 12.0607 48.6507V71.2329C12.0607 72.7585 13.3018 73.9996 14.8273 73.9996H25.1551C25.7537 73.9996 26.239 73.5142 26.239 72.9156C26.239 72.3169 25.7537 71.8316 25.1551 71.8316H22.8228V50.4849C22.8228 49.8863 22.3374 49.4009 21.7388 49.4009C21.1401 49.4009 20.6548 49.8863 20.6548 50.4849V71.8319H14.8274C14.4975 71.8319 14.2289 71.5633 14.2289 71.2334V48.6508C14.2289 43.7701 18.3471 41.9321 18.6 41.824L26.3807 38.8077L29.7991 45.6587C30.1262 46.3139 30.7903 46.7095 31.4982 46.7095C32.1921 46.7095 32.5604 46.3844 33.0502 46.0365L33.9233 47.3509L30.6828 66.4967C30.6809 66.5075 30.6793 66.5183 30.6777 66.5293C30.5994 67.0965 30.7747 67.6794 31.1466 68.0887L34.5493 71.832H30.2141C29.6154 71.832 29.1301 72.3174 29.1301 72.916C29.1301 73.5147 29.6154 74 30.2141 74H59.1731C60.6986 74 61.9397 72.7588 61.9397 71.2334V61.0419C61.9394 60.4431 61.4541 59.9578 60.8554 59.9578ZM45.5815 38.0217L42.3947 44.4085C42.3155 44.3523 40.6267 43.1524 38.5622 41.6864C39.458 40.5806 38.41 41.8742 42.4985 36.8277L45.5815 38.0217ZM39.1742 44.7806L38.3477 46.0245H35.6446L34.8181 44.7806L36.9962 43.2336L39.1742 44.7806ZM32.9159 35.1386V33.1099C34.2329 33.6408 35.6404 33.8869 37.0149 33.8869C38.436 33.8869 39.8297 33.584 41.0692 33.042V35.1474L36.9962 40.1749L32.9159 35.1386ZM49.2679 20.4568C49.2678 21.1669 48.9602 21.8388 48.424 22.3C48.0695 22.605 47.6412 22.7999 47.1722 22.8763V18.0378C48.4181 18.2401 49.2679 19.2735 49.2679 20.4568ZM26.5947 22.8763C25.3347 22.6718 24.499 21.63 24.499 20.4567C24.499 19.2978 25.4597 18.3546 26.5947 18.0923V22.8763ZM26.653 15.8834C26.3077 15.923 25.912 16.0165 25.617 16.1168V13.4346C25.617 7.22223 30.6709 2.16811 36.8833 2.16811C43.0957 2.16811 48.1497 7.22223 48.1497 13.4346V16.0424C47.8346 15.9466 47.5078 15.8833 47.1724 15.8535C47.1724 14.8075 47.1815 15.0093 43.7597 11.3305C43.1304 10.6544 42.0895 10.5128 41.2973 11.0303C37.5207 13.4973 32.9138 14.7367 28.6631 14.4314C27.7307 14.3616 26.8815 14.9758 26.653 15.8834ZM28.7628 23.7297V16.9668V16.6105C33.442 16.8846 38.3479 15.4945 42.3111 12.9564C43.8804 14.6413 44.7302 15.5251 45.0043 15.8613C45.0043 16.7117 45.0043 22.7562 45.0043 23.7296C45.0043 28.1301 41.4161 31.7187 37.015 31.7187C32.0729 31.7188 28.7628 27.885 28.7628 23.7297ZM31.5978 44.4085L28.4111 38.0217L31.4886 36.8297L35.4257 41.6896C33.4235 43.1114 31.7795 44.2795 31.5978 44.4085ZM32.8415 66.7304L35.9791 48.1924H38.0128L41.1505 66.7304L36.9961 71.3009L32.8415 66.7304Z" fill="#1D80EB"/>
</svg>
