<svg width="75" height="75" viewBox="0 0 75 75" fill="none" xmlns="http://www.w3.org/2000/svg">
<g clip-path="url(#clip0_174_136)">
<path d="M64.7378 63.9472C64.6978 63.1518 64.321 62.4066 63.7041 61.9028L52.0153 52.3589C50.8884 51.4388 49.2629 51.5206 48.2339 52.5494L47.9771 52.8063L45.1311 49.9603C48.5237 46.259 50.6632 41.5208 51.1862 36.5094C51.2442 35.9541 50.8411 35.4571 50.2859 35.399C49.7316 35.3405 49.2336 35.7442 49.1757 36.2994C48.1253 46.3642 40.1878 54.336 30.1231 55.4253C29.5681 55.4854 29.1669 55.984 29.227 56.5391C29.2874 57.0969 29.7889 57.4953 30.3409 57.4352C35.3176 56.8965 40.0239 54.7604 43.7018 51.3896L46.5477 54.2357L46.291 54.4925C45.2622 55.5213 45.1804 57.1469 46.1005 58.2738L55.6444 69.9626C56.1482 70.5795 56.8935 70.9563 57.6889 70.9964C57.7361 70.9988 57.7831 70.9999 57.8302 70.9999C58.576 70.9999 59.2971 70.7029 59.8267 70.1731L63.9147 66.0853C64.4777 65.5221 64.7779 64.7427 64.7378 63.9472ZM62.4852 64.6557L58.3973 68.7435C58.235 68.9058 58.0192 68.9893 57.7907 68.977C57.5616 68.9656 57.3555 68.8613 57.2104 68.6837L47.6664 56.9949C47.4053 56.6751 47.4286 56.2138 47.7205 55.9216L49.6635 53.9786C49.9554 53.6867 50.4169 53.6634 50.7368 53.9246L62.4255 63.4684C62.6032 63.6135 62.7075 63.8196 62.7189 64.0487C62.7304 64.278 62.6474 64.4935 62.4852 64.6557Z" fill="#1D80EB"/>
<path d="M51.186 31.5822C50.5296 25.2907 47.3138 19.301 41.976 15.2637V3.50951C41.976 2.67706 41.2989 2 40.4666 2H34.875C34.0426 2 33.3654 2.67706 33.3654 3.50951V9.53042H28.2859C27.6304 9.53042 27.0726 9.95116 26.8645 10.5363C20.9169 10.7633 15.3639 13.1793 11.1422 17.4009C1.96431 26.5789 1.96431 41.5125 11.1422 50.6903C14.9631 54.5112 20.0314 56.9134 25.4135 57.4543C25.967 57.5105 26.4642 57.1064 26.5202 56.5498C26.576 55.9944 26.171 55.4989 25.6156 55.443C20.6963 54.9486 16.0637 52.7532 12.5717 49.261C4.18201 40.8713 4.18201 27.2201 12.5717 18.8303C16.3907 15.0113 21.4022 12.8074 26.7762 12.5616V16.1615H21.8945C21.8941 16.1615 21.8937 16.1615 21.8931 16.1615H21.6965C20.8642 16.1615 20.187 16.8386 20.187 17.6711V17.8519C18.3068 18.7307 16.6099 19.9203 15.1359 21.3945C8.16001 28.3703 8.16001 39.7208 15.1359 46.6968C18.6243 50.1852 23.2049 51.9291 27.7871 51.9287C37.4208 51.9277 45.1623 44.3852 45.6455 34.9743C45.8649 30.7002 44.5638 26.5156 41.976 23.1499V17.8694C46.0564 21.448 48.6181 26.4521 49.1753 31.792C49.2333 32.3473 49.7309 32.7504 50.2855 32.6924C50.8409 32.6346 51.2441 32.1376 51.186 31.5822ZM35.3869 4.02162H39.9544C39.9544 4.80447 39.9544 36.0221 39.9544 37.3929H35.3869C35.3869 35.9811 35.3869 5.43625 35.3869 4.02162ZM28.7978 11.552H33.3653V37.3929H28.7978C28.7978 37.1318 28.7978 12.2839 28.7978 11.552ZM22.2088 18.1833H26.7762V37.3929H22.2088C22.2088 36.7435 22.2088 19.1064 22.2088 18.1833ZM20.1873 20.1158V22.4575H16.9458C17.9274 21.5384 19.0121 20.7544 20.1873 20.1158ZM15.6198 24.4791H20.1873V37.3928H15.6198V24.4791ZM13.5982 26.9363V37.3928H12.2794C11.5304 33.8953 11.97 30.1924 13.5982 26.9363ZM41.9761 26.9294C43.6276 30.2069 44.0597 33.9068 43.3079 37.3929H41.9761V26.9294ZM42.7289 39.4145C41.9589 41.5554 40.716 43.5604 39.0089 45.2675C30.8168 53.4593 16.7742 50.3681 12.8551 39.4145C13.7084 39.4145 41.7821 39.4145 42.7289 39.4145Z" fill="#1D80EB"/>
</g>
<defs>
<clipPath id="clip0_174_136">
<rect width="73.9472" height="73.9472" fill="white" transform="translate(0.973633 0.123993)"/>
</clipPath>
</defs>
</svg>
