<svg width="29" height="29" viewBox="0 0 29 29" fill="none" xmlns="http://www.w3.org/2000/svg">
<g clip-path="url(#clip0_176_2909)">
<path d="M14.5 29C22.5081 29 29 22.5081 29 14.5C29 6.49187 22.5081 0 14.5 0C6.49187 0 0 6.49187 0 14.5C0 22.5081 6.49187 29 14.5 29Z" fill="#B1B1B1"/>
<path d="M18.1452 15.068H15.5579V24.5468H11.6378V15.068H9.77344V11.7368H11.6378V9.58107C11.6378 8.03952 12.3701 5.62561 15.5928 5.62561L18.4965 5.63776V8.8713H16.3897C16.0441 8.8713 15.5581 9.04396 15.5581 9.77932V11.7399H18.4877L18.1452 15.068Z" fill="white"/>
</g>
<defs>
<clipPath id="clip0_176_2909">
<rect width="29" height="29" fill="white"/>
</clipPath>
</defs>
</svg>
