<svg width="29" height="29" viewBox="0 0 29 29" fill="none" xmlns="http://www.w3.org/2000/svg">
<g clip-path="url(#clip0_176_2904)">
<path d="M14.5 29C22.5081 29 29 22.5081 29 14.5C29 6.49187 22.5081 0 14.5 0C6.49187 0 0 6.49187 0 14.5C0 22.5081 6.49187 29 14.5 29Z" fill="#B1B1B1"/>
<path fill-rule="evenodd" clip-rule="evenodd" d="M13.9521 20.8598H15.0901C15.0901 20.8598 15.4339 20.8221 15.6094 20.6329C15.771 20.4592 15.7658 20.133 15.7658 20.133C15.7658 20.133 15.7436 18.6059 16.4523 18.381C17.151 18.1595 18.0481 19.8569 18.9991 20.5096C19.7182 21.0035 20.2646 20.8952 20.2646 20.8952L22.8072 20.8598C22.8072 20.8598 24.1373 20.7779 23.5066 19.7321C23.4549 19.6465 23.1393 18.9584 21.6161 17.5446C20.0219 16.0648 20.2354 16.3042 22.1558 13.7445C23.3254 12.1856 23.793 11.2339 23.647 10.8263C23.5077 10.438 22.6475 10.5406 22.6475 10.5406L19.7846 10.5585C19.7846 10.5585 19.5724 10.5295 19.415 10.6236C19.2612 10.7159 19.1622 10.9309 19.1622 10.9309C19.1622 10.9309 18.7091 12.1373 18.1047 13.1631C16.8299 15.3279 16.3202 15.4421 16.1119 15.3077C15.6272 14.9945 15.7482 14.0492 15.7482 13.3777C15.7482 11.2799 16.0664 10.4052 15.1286 10.1788C14.8174 10.1036 14.5884 10.0539 13.7926 10.0459C12.7711 10.0353 11.9065 10.049 11.4169 10.2889C11.0912 10.4484 10.84 10.8038 10.993 10.8242C11.1822 10.8495 11.6108 10.9397 11.838 11.2491C12.1314 11.6482 12.121 12.5446 12.121 12.5446C12.121 12.5446 12.2895 15.0141 11.7274 15.3209C11.3415 15.5313 10.8121 15.1017 9.67557 13.1378C9.09323 12.1318 8.65356 11.0199 8.65356 11.0199C8.65356 11.0199 8.56878 10.812 8.41757 10.7009C8.23405 10.5662 7.97764 10.5233 7.97764 10.5233L5.25718 10.5412C5.25718 10.5412 4.84879 10.5525 4.69887 10.7301C4.5655 10.888 4.68828 11.2148 4.68828 11.2148C4.68828 11.2148 6.81812 16.1977 9.2297 18.7088C11.441 21.011 13.9521 20.8598 13.9521 20.8598Z" fill="white"/>
</g>
<defs>
<clipPath id="clip0_176_2904">
<rect width="29" height="29" fill="white"/>
</clipPath>
</defs>
</svg>
