<svg width="75" height="74" viewBox="0 0 75 74" fill="none" xmlns="http://www.w3.org/2000/svg">
<path d="M61.4036 59.9578C60.8079 59.9578 60.325 60.4431 60.325 61.0418V71.2332C60.325 71.5632 60.0578 71.8317 59.7295 71.8317H53.9314V50.4849C53.9314 49.8863 53.4485 49.4009 52.8528 49.4009C52.2571 49.4009 51.7742 49.8863 51.7742 50.4849V71.8319H40.0988L43.4846 68.0885C43.8545 67.6795 44.0289 67.0969 43.9511 66.5295C43.9497 66.5185 43.9479 66.5075 43.9461 66.4965L40.7214 47.3509L41.5901 46.0365C42.0705 46.3794 42.4405 46.7095 43.1344 46.7095C43.8402 46.7095 44.5002 46.3124 44.8249 45.6589V45.6587L48.2261 38.8079L55.9741 41.8236C56.2544 41.9444 60.3247 43.7866 60.3247 48.651V55.983C60.3245 56.5815 60.8075 57.067 61.4033 57.067C61.999 57.067 62.4819 56.5817 62.4819 55.983V48.651C62.4819 42.2419 57.0215 39.9122 56.7891 39.816C56.7823 39.8132 56.7754 39.8104 56.7685 39.8078L43.8731 34.7888V31.7493C45.9213 30.1485 47.3415 27.7754 47.698 25.0681C48.7192 24.9958 49.6668 24.6125 50.4406 23.9438C51.4512 23.0704 52.031 21.7992 52.031 20.4568C52.031 19.3428 51.6311 18.279 50.9184 17.4501V13.4346C50.9182 6.02681 44.9215 0 37.5506 0C30.1796 0 24.183 6.02681 24.183 13.4346V17.5553C23.4626 18.3758 23.0709 19.3858 23.0709 20.4567C23.0709 21.7995 23.6504 23.0705 24.6613 23.9441C25.4346 24.6125 26.3816 24.9954 27.4025 25.0678C27.7619 27.8259 29.2234 30.2874 31.446 31.9098V34.7888L18.5646 39.8077C18.5579 39.8103 18.5511 39.813 18.5444 39.8158C18.3118 39.9119 12.8516 42.2416 12.8516 48.6507V71.2329C12.8516 72.7585 14.0865 73.9996 15.6044 73.9996H25.8808C26.4765 73.9996 26.9594 73.5142 26.9594 72.9156C26.9594 72.3169 26.4765 71.8316 25.8808 71.8316H23.5601V50.4849C23.5601 49.8863 23.0772 49.4009 22.4815 49.4009C21.8858 49.4009 21.4029 49.8863 21.4029 50.4849V71.8319H15.6046C15.2762 71.8319 15.009 71.5633 15.009 71.2334V48.6508C15.009 43.7701 19.1067 41.9321 19.3583 41.824L27.1003 38.8077L30.5018 45.6587C30.8272 46.3139 31.488 46.7095 32.1924 46.7095C32.8829 46.7095 33.2493 46.3844 33.7367 46.0365L34.6055 47.3509L31.381 66.4967C31.3792 66.5075 31.3776 66.5183 31.376 66.5293C31.2981 67.0965 31.4725 67.6794 31.8425 68.0887L35.2283 71.832H30.9147C30.319 71.832 29.8361 72.3174 29.8361 72.916C29.8361 73.5147 30.319 74 30.9147 74H59.7296C61.2475 74 62.4824 72.7588 62.4824 71.2334V61.0419C62.4822 60.4431 61.9992 59.9578 61.4036 59.9578ZM46.2056 38.0217L43.0347 44.4085C42.9559 44.3523 41.2755 43.1524 39.2213 41.6864C40.1126 40.5806 39.0698 41.8742 43.138 36.8277L46.2056 38.0217ZM39.8302 44.7806L39.0078 46.0245H36.3181L35.4958 44.7806L37.663 43.2336L39.8302 44.7806ZM33.6031 35.1386V33.1099C34.9135 33.6408 36.3139 33.8869 37.6816 33.8869C39.0957 33.8869 40.4825 33.584 41.7158 33.042V35.1474L37.663 40.1749L33.6031 35.1386ZM49.8737 20.4568C49.8736 21.1669 49.5675 21.8388 49.034 22.3C48.6812 22.605 48.2551 22.7999 47.7884 22.8763V18.0378C49.0281 18.2401 49.8737 19.2735 49.8737 20.4568ZM27.3133 22.8763C26.0596 22.6718 25.228 21.63 25.228 20.4567C25.228 19.2978 26.184 18.3546 27.3133 18.0923V22.8763ZM27.3713 15.8834C27.0277 15.923 26.6339 16.0165 26.3404 16.1168V13.4346C26.3404 7.22223 31.3693 2.16811 37.5507 2.16811C43.7322 2.16811 48.761 7.22223 48.761 13.4346V16.0424C48.4475 15.9466 48.1224 15.8833 47.7886 15.8535C47.7886 14.8075 47.7976 15.0093 44.3929 11.3305C43.7667 10.6544 42.731 10.5128 41.9428 11.0303C38.1849 13.4973 33.6009 14.7367 29.3714 14.4314C28.4437 14.3616 27.5986 14.9758 27.3713 15.8834ZM29.4706 23.7297V16.9668V16.6105C34.1266 16.8846 39.008 15.4945 42.9515 12.9564C44.513 14.6413 45.3586 15.5251 45.6313 15.8613C45.6313 16.7117 45.6313 22.7562 45.6313 23.7296C45.6313 28.1301 42.061 31.7187 37.6817 31.7187C32.7642 31.7188 29.4706 27.885 29.4706 23.7297ZM32.2915 44.4085L29.1206 38.0217L32.1828 36.8297L36.1004 41.6896C34.1082 43.1114 32.4723 44.2795 32.2915 44.4085ZM33.529 66.7304L36.651 48.1924H38.6746L41.7966 66.7304L37.6629 71.3009L33.529 66.7304Z" fill="white"/>
</svg>
