<svg width="64" height="63" viewBox="0 0 64 63" fill="none" xmlns="http://www.w3.org/2000/svg">
<g clip-path="url(#clip0_512_548)">
<path d="M63.197 30.4274C62.7633 29.6335 62.2999 28.8617 61.8103 28.1111C55.8868 16.4712 45.0426 8.08618 32.1392 8.08618C19.2013 8.08618 8.37476 16.5034 2.46777 28.1118C1.9784 28.862 1.51511 29.6337 1.08157 30.4274C0.700675 31.1246 0.700675 31.9572 1.08157 32.6542C1.51511 33.448 1.97853 34.2197 2.4679 34.9702C8.38872 46.6059 18.6495 54.059 29.9278 54.9113C30.4348 54.9493 30.8743 54.5684 30.9124 54.0602C30.9505 53.5519 30.5713 53.1089 30.0655 53.0706C23.2725 52.5574 16.861 49.4835 11.6481 44.4475C17.6257 48.6334 24.7826 50.8723 32.1391 50.8723C39.4843 50.8723 46.6434 48.6397 52.63 44.4474C47.4173 49.4833 41.0059 52.5572 34.213 53.0705C33.7072 53.1088 33.3282 53.5518 33.3663 54.0601C33.4041 54.5657 33.8417 54.949 34.3507 54.9112C45.6286 54.0588 55.8891 46.6059 61.8098 34.9707C62.2994 34.2201 62.7629 33.4482 63.1966 32.6541C63.5776 31.957 63.5776 31.1246 63.197 30.4274ZM32.1392 9.93201C39.8124 9.93201 47.0303 13.098 52.7844 18.743C46.7358 14.4588 39.5088 12.2094 32.1392 12.2094C24.7853 12.2094 17.5548 14.4499 11.4938 18.743C17.248 13.0981 24.466 9.93201 32.1392 9.93201ZM61.587 31.7661C55.7855 42.3866 44.5242 49.0266 32.1392 49.0266C19.5926 49.0266 8.41443 42.2433 2.69146 31.7661C2.61445 31.6252 2.61445 31.4568 2.69146 31.3158C8.49095 20.6984 19.756 14.0554 32.1391 14.0554C45.1333 14.0554 56.1019 21.2751 61.5868 31.3158C61.6638 31.4567 61.6638 31.6252 61.587 31.7661Z" fill="white"/>
<path d="M32.1395 20.6929C26.1467 20.6929 21.3047 25.5946 21.3047 31.5819C21.3047 37.6287 26.1989 42.4709 32.1395 42.4709C38.1401 42.4709 42.9743 37.5622 42.9743 31.5819C42.9744 25.5257 38.0689 20.6929 32.1395 20.6929ZM31.2213 22.8058V27.3586C30.3526 27.3012 29.4964 27.1626 28.6619 26.9455C29.0734 25.5043 29.9275 23.5476 31.2213 22.8058ZM28.121 23.4955C27.5927 24.3861 27.2035 25.3715 26.9168 26.3631C26.3921 26.1479 25.8795 25.9005 25.3821 25.6202C26.168 24.7214 27.0988 24.0082 28.121 23.4955ZM26.5012 28.183C26.3639 28.9793 26.2749 29.809 26.2376 30.6588H23.1879C23.3129 29.4217 23.6927 28.2253 24.3123 27.1293C25.0167 27.5383 25.748 27.891 26.5012 28.183ZM24.3516 36.1029C23.7289 35.0238 23.3196 33.8051 23.1879 32.5046H26.2375C26.2761 33.385 26.3697 34.2443 26.5155 35.0668C25.7712 35.3545 25.0482 35.7012 24.3516 36.1029ZM25.4353 37.6052C25.9233 37.3329 26.4261 37.0924 26.9405 36.8826C27.2245 37.8452 27.6073 38.8016 28.1209 39.6676C27.0945 39.1525 26.1858 38.4479 25.4353 37.6052ZM31.2213 40.3579C29.9367 39.6214 29.1044 37.7322 28.6864 36.3035C29.5131 36.09 30.3612 35.9536 31.2213 35.8968V40.3579ZM31.2214 34.0494C30.2244 34.1076 29.241 34.259 28.2825 34.5029C28.181 33.8824 28.1086 33.2032 28.0753 32.5046H31.2214V34.0494ZM31.2214 30.6588H28.0753C28.1084 29.9658 28.1755 29.3362 28.2679 28.7485C29.2309 28.9945 30.2192 29.1473 31.2214 29.2058V30.6588ZM39.9669 27.1295C40.5937 28.2379 40.9679 29.4383 41.0912 30.6589H38.0416C38.0043 29.8092 37.9153 28.9796 37.778 28.1831C38.5314 27.8911 39.2625 27.5383 39.9669 27.1295ZM38.8971 25.6202C38.3997 25.9006 37.8871 26.148 37.3624 26.3632C37.0763 25.3738 36.6874 24.3881 36.1581 23.4955C37.1998 24.019 38.1163 24.7275 38.8971 25.6202ZM33.0579 22.8057C34.0603 23.381 35.0213 24.8578 35.6172 26.9454C34.7828 27.1624 33.9266 27.3011 33.0579 27.3584V22.8057ZM33.0578 29.2059C34.0602 29.1474 35.0486 28.9946 36.0115 28.7485C36.1064 29.3527 36.1719 29.9913 36.2039 30.6589H33.0578V29.2059ZM33.0578 40.3577V35.8967C33.9178 35.9535 34.7658 36.09 35.5927 36.3035C34.9953 38.3462 34.0468 39.7905 33.0578 40.3577ZM33.0578 34.0494V32.5048H36.2039C36.1705 33.2053 36.0991 33.8727 35.9966 34.503C35.0383 34.259 34.0549 34.1076 33.0578 34.0494ZM36.1582 39.6676C36.6717 38.8018 37.0546 37.8452 37.3386 36.8826C37.853 37.0923 38.3557 37.3329 38.8437 37.6052C38.1055 38.4344 37.1972 39.1467 36.1582 39.6676ZM39.9274 36.103C39.2307 35.7013 38.5079 35.3547 37.7635 35.067C37.9093 34.2444 38.0028 33.3852 38.0415 32.5046H41.0911C40.9594 33.8052 40.5502 35.0238 39.9274 36.103Z" fill="white"/>
<path d="M45.7012 32.8238C45.2001 32.7441 44.7298 33.0876 44.6506 33.5909C43.6711 39.8042 38.4094 44.3139 32.1394 44.3139C25.1539 44.3139 19.4707 38.6023 19.4707 31.5819C19.4707 24.5614 25.1539 18.8499 32.1394 18.8499C38.4095 18.8499 43.6711 23.3595 44.6506 29.5729C44.7298 30.0762 45.2 30.4198 45.7012 30.34C46.2021 30.2602 46.5438 29.7875 46.4644 29.2841C45.9301 25.8939 44.2035 22.7865 41.6031 20.5344C38.9744 18.2578 35.6135 17.0042 32.1394 17.0042C24.1412 17.0042 17.634 23.5438 17.634 31.582C17.634 39.6202 24.1411 46.1596 32.1392 46.1596C35.6135 46.1596 38.9744 44.906 41.603 42.6294C44.2035 40.3772 45.9299 37.2698 46.4642 33.8797C46.5437 33.3763 46.202 32.9035 45.7012 32.8238Z" fill="white"/>
</g>
<defs>
<clipPath id="clip0_512_548">
<rect width="62.6866" height="63" fill="white" transform="translate(0.795898)"/>
</clipPath>
</defs>
</svg>
