<svg width="84" height="84" viewBox="0 0 84 84" fill="none" xmlns="http://www.w3.org/2000/svg">
<g clip-path="url(#clip0_512_514)">
<path d="M58.0287 29.6647H54.3207C54.0943 28.9425 53.8063 28.2432 53.4588 27.5724L56.0805 24.9374C56.4082 24.6081 56.5885 24.1702 56.5885 23.7045C56.5885 23.2385 56.4082 22.8006 56.0805 22.4714L52.995 19.3703C52.3185 18.6909 51.2179 18.6906 50.5413 19.3704L47.9194 22.0054C47.2519 21.6562 46.5559 21.3666 45.8375 21.1392V17.4125C45.8373 16.4511 45.059 15.6687 44.1022 15.6687H39.7385C38.7818 15.6687 38.0035 16.451 38.0035 17.4125V21.1392C37.2849 21.3667 36.5891 21.6562 35.9215 22.0054L33.2994 19.3703C32.6229 18.6907 31.5223 18.6909 30.8458 19.3704L27.7605 22.4712C27.4327 22.8005 27.2521 23.2384 27.2521 23.7043C27.2521 24.1701 27.4327 24.608 27.7603 24.9372L30.3822 27.5722C30.0346 28.2431 29.7465 28.9425 29.5203 29.6645H25.8121C24.8555 29.6645 24.0771 30.4468 24.0771 31.4083V35.7939C24.0771 36.7553 24.8555 37.5375 25.8121 37.5375H29.5203C29.7467 38.2596 30.0346 38.9591 30.3822 39.6298L27.7603 42.2648C27.0838 42.9447 27.0838 44.051 27.7603 44.7308L30.8458 47.8318C31.5223 48.5118 32.6232 48.5117 33.2996 47.8318L35.9215 45.1968C36.589 45.5461 37.285 45.8356 38.0035 46.063V49.7897C38.0035 50.7511 38.7818 51.5333 39.7385 51.5333H44.1022C45.0588 51.5333 45.8373 50.7511 45.8373 49.7897V46.063C46.5556 45.8356 47.2517 45.5461 47.9192 45.1968L50.5411 47.8318C51.2178 48.5118 52.3185 48.5117 52.995 47.8318L56.0804 44.7308C56.408 44.4016 56.5884 43.9637 56.5884 43.4979C56.5884 43.0321 56.408 42.5943 56.0804 42.2648L53.4585 39.6298C53.806 38.959 54.0942 38.2596 54.3204 37.5375H58.0285C58.9852 37.5375 59.7637 36.7553 59.7637 35.7939V31.4083C59.7638 30.4469 58.9853 29.6647 58.0287 29.6647ZM57.3153 35.0766H53.3878C52.819 35.0766 52.3252 35.4702 52.1956 36.0268C51.9346 37.1482 51.4964 38.2118 50.8932 39.1878C50.593 39.6735 50.6653 40.3028 51.0674 40.7072L53.8444 43.4981L51.7682 45.5846L48.9912 42.7938C48.589 42.3895 47.9628 42.3167 47.4793 42.6185C46.508 43.2247 45.4496 43.6651 44.3342 43.9276C43.7803 44.0577 43.3886 44.554 43.3886 45.1257V49.0731H40.4527V45.1257C40.4527 44.5541 40.061 44.0579 39.5071 43.9276C38.3917 43.6654 37.3334 43.2251 36.3619 42.6185C35.8788 42.3173 35.2525 42.3895 34.8501 42.7938L32.0731 45.5846L29.9969 43.4981L32.7739 40.7072C33.1761 40.303 33.2483 39.6736 32.9483 39.1878C32.3451 38.2117 31.9069 37.1481 31.6459 36.0268C31.5164 35.4702 31.0224 35.0766 30.4537 35.0766H26.5262V32.1259H30.4537C31.0224 32.1259 31.5163 31.7324 31.6459 31.1757C31.9069 30.0545 32.3451 28.9909 32.9483 28.0147C33.2483 27.5291 33.1761 26.8997 32.7739 26.4953L29.9969 23.7045L32.0731 21.6179L34.8501 24.4088C35.252 24.813 35.8785 24.8857 36.3619 24.584C37.333 23.9778 38.3914 23.5375 39.5071 23.2751C40.061 23.145 40.4527 22.6487 40.4527 22.077V18.1296H43.3886V22.077C43.3886 22.6486 43.7803 23.1449 44.3342 23.2751C45.4498 23.5375 46.508 23.9778 47.4794 24.584C47.9623 24.8854 48.5888 24.8127 48.9912 24.4088L51.7682 21.6179L53.8444 23.7045L51.0674 26.4953C50.6652 26.8996 50.593 27.5289 50.8932 28.0147C51.4963 28.9906 51.9344 30.0542 52.1956 31.1757C52.3252 31.7324 52.8189 32.1259 53.3878 32.1259H57.3153V35.0766Z" fill="white"/>
<path d="M41.9203 27.0093C38.3034 27.0093 35.3611 29.9665 35.3611 33.6013C35.3611 37.2361 38.3036 40.1933 41.9203 40.1933C45.537 40.1933 48.4795 37.2361 48.4795 33.6013C48.4795 29.9665 45.5372 27.0093 41.9203 27.0093ZM41.9203 37.7324C39.6538 37.7324 37.8098 35.8791 37.8098 33.6013C37.8098 31.3235 39.6538 29.4702 41.9203 29.4702C44.1868 29.4702 46.0308 31.3235 46.0308 33.6013C46.0308 35.8791 44.1868 37.7324 41.9203 37.7324Z" fill="white"/>
<path d="M13.7726 32.3708H9.71067C9.03451 32.3708 8.48633 32.9218 8.48633 33.6013C8.48633 34.2809 9.03451 34.8318 9.71067 34.8318H13.7726C14.4487 34.8318 14.9969 34.2809 14.9969 33.6013C14.9969 32.9218 14.4487 32.3708 13.7726 32.3708Z" fill="white"/>
<path d="M74.1302 32.3708H70.0683C69.392 32.3708 68.844 32.9218 68.844 33.6013C68.844 34.2809 69.392 34.8318 70.0683 34.8318H74.1302C74.8066 34.8318 75.3546 34.2809 75.3546 33.6013C75.3546 32.9218 74.8064 32.3708 74.1302 32.3708Z" fill="white"/>
<path d="M22.8825 52.7344C22.4045 52.2539 21.6292 52.2539 21.1509 52.7344L18.2788 55.6209C17.8006 56.1015 17.8006 56.8806 18.2788 57.3612C18.7569 57.8417 19.5322 57.8417 20.0103 57.3612L22.8825 54.4746C23.3606 53.9941 23.3606 53.215 22.8825 52.7344Z" fill="white"/>
<path d="M65.5621 9.84185C65.0838 9.36131 64.3087 9.36131 63.8304 9.84185L60.9582 12.7284C60.4801 13.2089 60.4801 13.988 60.9582 14.4686C61.4365 14.9491 62.2116 14.9489 62.6899 14.4686L65.5621 11.5821C66.0402 11.1014 66.0402 10.3222 65.5621 9.84185Z" fill="white"/>
<path d="M41.9206 0C41.2443 0 40.6963 0.550921 40.6963 1.23047V5.31266C40.6963 5.99221 41.2443 6.54313 41.9206 6.54313C42.597 6.54313 43.145 5.99221 43.145 5.31266V1.23047C43.145 0.550921 42.597 0 41.9206 0Z" fill="#1D80EB"/>
<path d="M65.5621 55.6209L62.6899 52.7344C62.2116 52.2539 61.4365 52.2539 60.9582 52.7344C60.4801 53.215 60.4801 53.9943 60.9582 54.4746L63.8304 57.3612C64.3087 57.8417 65.0838 57.8417 65.5621 57.3612C66.0402 56.8806 66.0402 56.1015 65.5621 55.6209Z" fill="white"/>
<path d="M22.8825 12.7284L20.0103 9.84185C19.5322 9.36131 18.7569 9.36131 18.2788 9.84185C17.8006 10.3224 17.8006 11.1015 18.2788 11.5821L21.1509 14.4686C21.6291 14.9491 22.4043 14.9491 22.8825 14.4686C23.3606 13.9879 23.3606 13.2087 22.8825 12.7284Z" fill="white"/>
<path d="M66.3468 30.5868C65.0292 19.287 56.1165 10.3289 44.9256 8.95802C44.2555 8.87516 43.6438 9.35603 43.5618 10.0305C43.4801 10.7051 43.9579 11.3187 44.6291 11.4011C54.7924 12.646 62.7229 20.6534 63.9144 30.8733C63.9874 31.4995 64.5164 31.9605 65.1288 31.9605C65.1764 31.9605 65.2244 31.9577 65.2729 31.9522C65.9448 31.8732 66.4254 31.2619 66.3468 30.5868Z" fill="white"/>
<path d="M65.2585 35.2518C64.5865 35.1659 63.9749 35.6438 63.89 36.3181C63.0553 42.9442 59.3339 48.7909 53.6801 52.3584C51.2426 53.8965 49.7876 56.5287 49.7876 59.3995V64.4636H34.0535V59.2874C34.0535 56.5076 32.608 53.8813 30.2812 52.4337C23.7014 48.3404 19.7731 41.2599 19.7729 33.4934C19.7729 22.2794 28.1308 12.7825 39.214 11.4028C39.8851 11.3192 40.3617 10.7047 40.2786 10.0302C40.1955 9.35592 39.5843 8.87571 38.9128 8.96036C26.6669 10.485 17.3236 21.0686 17.3237 33.4934C17.3237 37.7808 18.4333 42.0051 20.5328 45.7096C22.568 49.301 25.4932 52.3496 28.9919 54.5262C30.6033 55.5286 31.6042 57.353 31.6042 59.2873V64.6428C30.3592 65.0775 29.4616 66.2657 29.4616 67.663V69.4171C29.4616 70.1598 29.7169 70.8425 30.1408 71.386C29.7167 71.9296 29.4616 72.6121 29.4616 73.3549V75.1089C29.4616 76.8731 30.8898 78.3083 32.645 78.3083H36.4944V81.09C36.4944 82.6947 37.7933 84.0001 39.3898 84.0001H44.45C46.0467 84.0001 47.3455 82.6947 47.3455 81.09V78.3083H51.1948C52.9502 78.3083 54.3783 76.8729 54.3783 75.1089V73.3549C54.3783 72.6122 54.123 71.9296 53.6988 71.386C54.123 70.8425 54.3783 70.16 54.3783 69.4171V67.663C54.3783 66.2655 53.4808 65.0775 52.2357 64.6428V59.3993C52.2357 57.3805 53.262 55.5276 54.9815 54.4427C61.2589 50.4816 65.3913 43.988 66.3184 36.6272C66.4041 35.9529 65.9292 35.3371 65.2585 35.2518ZM44.8971 81.0898C44.8971 81.3331 44.6926 81.5389 44.4505 81.5389H39.3903C39.1482 81.5389 38.9437 81.3333 38.9437 81.0898V78.3082H44.8971V81.0898ZM51.9301 75.1088C51.9301 75.5089 51.5936 75.8471 51.1955 75.8471C49.0341 75.8471 34.6851 75.8471 32.6455 75.8471C32.2473 75.8471 31.9109 75.5089 31.9109 75.1088V73.3548C31.9109 72.9546 32.2473 72.6165 32.6455 72.6165H51.1955C51.5936 72.6165 51.9301 72.9546 51.9301 73.3548V75.1088ZM51.9301 69.417C51.9301 69.8171 51.5936 70.1553 51.1955 70.1553H32.6455C32.2473 70.1553 31.9109 69.8171 31.9109 69.417V67.6628C31.9109 67.2627 32.2473 66.9245 32.6455 66.9245H51.1955C51.5936 66.9245 51.9301 67.2627 51.9301 67.6628V69.417Z" fill="white"/>
</g>
<defs>
<clipPath id="clip0_512_514">
<rect width="83.5821" height="84" fill="white" transform="translate(0.129395)"/>
</clipPath>
</defs>
</svg>
