<svg width="74" height="75" viewBox="0 0 74 75" fill="none" xmlns="http://www.w3.org/2000/svg">
<g clip-path="url(#clip0_512_456)">
<path d="M63.8422 63.9471C63.8022 63.1517 63.4254 62.4065 62.8084 61.9027L51.1197 52.3588C49.9928 51.4387 48.3672 51.5205 47.3383 52.5493L47.0814 52.8062L44.2355 49.9602C47.628 46.2589 49.7676 41.5207 50.2906 36.5093C50.3486 35.954 49.9455 35.457 49.3902 35.3989C48.8359 35.3405 48.338 35.7441 48.28 36.2993C47.2297 46.3641 39.2921 54.3359 29.2275 55.4252C28.6725 55.4853 28.2713 55.984 28.3314 56.539C28.3918 57.0968 28.8932 57.4952 29.4452 57.4351C34.422 56.8965 39.1283 54.7603 42.8061 51.3895L45.6521 54.2356L45.3954 54.4924C44.3666 55.5212 44.2848 57.1468 45.2048 58.2738L54.7488 69.9625C55.2525 70.5795 55.9979 70.9563 56.7933 70.9963C56.8405 70.9987 56.8875 70.9998 56.9345 70.9998C57.6803 70.9998 58.4015 70.7028 58.9311 70.173L63.0191 66.0852C63.5821 65.522 63.8822 64.7426 63.8422 63.9471ZM61.5896 64.6556L57.5016 68.7434C57.3394 68.9057 57.1236 68.9892 56.8951 68.977C56.666 68.9655 56.4599 68.8612 56.3148 68.6836L46.7708 56.9948C46.5096 56.675 46.5329 56.2137 46.8248 55.9216L48.7679 53.9785C49.0598 53.6866 49.5212 53.6633 49.8412 53.9245L61.5299 63.4683C61.7075 63.6134 61.8118 63.8195 61.8233 64.0486C61.8347 64.278 61.7517 64.4934 61.5896 64.6556Z" fill="white"/>
<path d="M50.2905 31.5822C49.6341 25.2907 46.4183 19.301 41.0805 15.2637V3.50951C41.0805 2.67706 40.4034 2 39.5711 2H33.9794C33.1471 2 32.4699 2.67706 32.4699 3.50951V9.53042H27.3904C26.7349 9.53042 26.1771 9.95116 25.969 10.5363C20.0214 10.7633 14.4684 13.1793 10.2467 17.4009C1.0688 26.5789 1.0688 41.5125 10.2467 50.6903C14.0676 54.5112 19.1358 56.9134 24.518 57.4543C25.0715 57.5105 25.5687 57.1064 25.6247 56.5498C25.6805 55.9944 25.2755 55.4989 24.7201 55.443C19.8008 54.9486 15.1682 52.7532 11.6762 49.261C3.2865 40.8713 3.2865 27.2201 11.6762 18.8303C15.4952 15.0113 20.5067 12.8074 25.8807 12.5616V16.1615H20.999C20.9986 16.1615 20.9982 16.1615 20.9976 16.1615H20.801C19.9687 16.1615 19.2915 16.8386 19.2915 17.6711V17.8519C17.4113 18.7307 15.7144 19.9203 14.2404 21.3945C7.2645 28.3703 7.2645 39.7208 14.2404 46.6968C17.7288 50.1852 22.3094 51.9291 26.8916 51.9287C36.5253 51.9277 44.2668 44.3852 44.75 34.9743C44.9694 30.7002 43.6683 26.5156 41.0805 23.1499V17.8694C45.1609 21.448 47.7225 26.4521 48.2798 31.792C48.3377 32.3473 48.8354 32.7504 49.39 32.6924C49.9454 32.6346 50.3486 32.1376 50.2905 31.5822ZM34.4914 4.02162H39.0589C39.0589 4.80447 39.0589 36.0221 39.0589 37.3929H34.4914C34.4914 35.9811 34.4914 5.43625 34.4914 4.02162ZM27.9023 11.552H32.4698V37.3929H27.9023C27.9023 37.1318 27.9023 12.2839 27.9023 11.552ZM21.3133 18.1833H25.8807V37.3929H21.3133C21.3133 36.7435 21.3133 19.1064 21.3133 18.1833ZM19.2918 20.1158V22.4575H16.0503C17.0319 21.5384 18.1166 20.7544 19.2918 20.1158ZM14.7243 24.4791H19.2918V37.3928H14.7243V24.4791ZM12.7027 26.9363V37.3928H11.3839C10.6348 33.8953 11.0745 30.1924 12.7027 26.9363ZM41.0806 26.9294C42.7321 30.2069 43.1642 33.9068 42.4124 37.3929H41.0806V26.9294ZM41.8334 39.4145C41.0634 41.5554 39.8204 43.5604 38.1134 45.2675C29.9213 53.4593 15.8787 50.3681 11.9596 39.4145C12.8129 39.4145 40.8866 39.4145 41.8334 39.4145Z" fill="white"/>
</g>
<defs>
<clipPath id="clip0_512_456">
<rect width="73.5793" height="73.9472" fill="white" transform="translate(0.078125 0.124023)"/>
</clipPath>
</defs>
</svg>
