<svg width="7" height="4" viewBox="0 0 7 4" fill="none" xmlns="http://www.w3.org/2000/svg">
<path fill-rule="evenodd" clip-rule="evenodd" d="M0.146862 3.85317C0.193297 3.89971 0.248461 3.93664 0.309193 3.96184C0.369924 3.98703 0.435032 4 0.500785 4C0.566537 4 0.631645 3.98703 0.692376 3.96184C0.753108 3.93664 0.808272 3.89971 0.854707 3.85317L3.50013 1.20735L6.14555 3.85317C6.23942 3.94702 6.36673 3.99974 6.49948 3.99974C6.63222 3.99974 6.75953 3.94702 6.8534 3.85317C6.94727 3.75933 7 3.63205 7 3.49933C7 3.36661 6.94727 3.23933 6.8534 3.14549L3.85405 0.146828C3.80762 0.100286 3.75245 0.0633595 3.69172 0.0381643C3.63099 0.0129691 3.56588 8.29328e-08 3.50013 8.29328e-08C3.43438 8.29328e-08 3.36927 0.0129691 3.30854 0.0381643C3.24781 0.0633595 3.19264 0.100286 3.14621 0.146828L0.146862 3.14549C0.100308 3.19191 0.0633735 3.24706 0.0381725 3.30778C0.0129716 3.3685 0 3.43359 0 3.49933C0 3.56507 0.0129716 3.63016 0.0381725 3.69088C0.0633735 3.7516 0.100308 3.80675 0.146862 3.85317V3.85317Z" fill="white"/>
</svg>
