<svg width="28" height="28" viewBox="0 0 28 28" fill="none" xmlns="http://www.w3.org/2000/svg">
<path d="M27.6578 26.0085L19.6954 18.046C21.2378 16.1409 22.1664 13.72 22.1664 11.0834C22.1664 4.97235 17.1941 0 11.0832 0C4.97224 0 0 4.9723 0 11.0833C0 17.1943 4.9723 22.1666 11.0832 22.1666C13.7198 22.1666 16.1407 21.238 18.0458 19.6957L26.0082 27.6581C26.2357 27.8857 26.5344 28 26.8331 28C27.1318 28 27.4304 27.8857 27.6579 27.6581C28.114 27.202 28.114 26.4646 27.6578 26.0085ZM11.0832 19.8333C6.25793 19.8333 2.33333 15.9086 2.33333 11.0833C2.33333 6.25795 6.25793 2.3333 11.0832 2.3333C15.9085 2.3333 19.8331 6.25795 19.8331 11.0833C19.8331 15.9086 15.9085 19.8333 11.0832 19.8333Z" fill="#1D80EB"/>
</svg>
